<?xml version="1.0" encoding="UTF-8"?>
<!DOCTYPE svg PUBLIC "-//W3C//DTD SVG 1.1//EN" "http://www.w3.org/Graphics/SVG/1.1/DTD/svg11.dtd">
<!-- Creator: CorelDRAW 2020 (64-Bit) -->
<svg xmlns="http://www.w3.org/2000/svg" xml:space="preserve" width="210mm" height="297mm" version="1.1" style="shape-rendering:geometricPrecision; text-rendering:geometricPrecision; image-rendering:optimizeQuality; fill-rule:evenodd; clip-rule:evenodd"
viewBox="0 0 21000 29700"
 xmlns:xlink="http://www.w3.org/1999/xlink"
 xmlns:xodm="http://www.corel.com/coreldraw/odm/2003">
 <defs>
  <style type="text/css">
   <![CDATA[
    .fil0 {fill:white;fill-rule:nonzero}
   ]]>
  </style>
 </defs>
 <g id="Слой_x0020_1">
  <metadata id="CorelCorpID_0Corel-Layer"/>
  <path class="fil0" d="M20125 13975c483.44,0 875,-391.56 875,-875l0 -1750c0,-483.44 -391.56,-875 -875,-875l-2289.22 0c733.36,-1565.7 751.41,-3463.36 -225.86,-5143.36 -1021.01,-1756.02 -3002.89,-2731.64 -5033.98,-2731.64l-4310.47 0c-1330,0 -2617.34,466.48 -3638.91,1317.42l-643.67 536.49c-556.72,464.3 -632.19,1291.72 -167.89,1848.44l1120.55 1344.77c464.3,557.27 1291.72,632.19 1848.98,167.89l641.48 -534.84c236.25,-196.88 534.3,-304.61 841.64,-304.61l4572.98 -0.01c639.3,0 1159.38,520.63 1159.38,1159.38 0,323.2 -135.63,633.28 -372.42,852.03l-1612.75 1488.04 -11139.84 0c-483.44,0 -875,391.56 -875,875l0 1750c0,483.44 391.56,875 875,875l7348.36 0 -1896.02 1750 -5452.34 0c-483.44,0 -875,391.56 -875,875l0 1750c0,483.44 391.56,875 875,875l2289.22 0c-733.36,1565.7 -751.41,3463.36 225.86,5143.36 1021.01,1755.47 3002.89,2731.64 5033.98,2731.64l4310.47 0c1330,0 2617.34,-466.48 3638.91,-1317.42l643.67 -536.48c556.72,-464.3 632.19,-1291.72 167.89,-1848.44l-1120.55 -1344.77c-464.3,-557.27 -1291.72,-632.19 -1848.98,-167.89l-642.58 535.94c-235.86,196.41 -533,304.05 -839.91,304.05 0,0 -0.16,0 -0.16,0l-4573.45 0.01c-639.3,0 -1159.38,-520.63 -1159.38,-1159.38 0,-323.2 135.63,-633.28 372.42,-852.03l1612.75 -1488.59 11139.84 0c483.44,0 875,-391.56 875,-875l0 -1750c0,-483.44 -391.56,-875 -875,-875l-7348.36 0 1896.02 -1750 5452.34 0z"/>
 </g>
</svg>
